<?xml version="1.0" encoding="utf-8"?>
<!-- Generator: Adobe Illustrator 24.0.1, SVG Export Plug-In . SVG Version: 6.00 Build 0)  -->
<svg version="1.1" xmlns="http://www.w3.org/2000/svg" xmlns:xlink="http://www.w3.org/1999/xlink" x="0px" y="0px"
	 viewBox="0 0 1000 1000" style="enable-background:new 0 0 1000 1000;" xml:space="preserve">
<style type="text/css">
	.st0{fill:#EBECF5;}
	.st1{fill:url(#SVGID_1_);}
	.st2{display:none;}
	.st3{display:none;fill:#EBECF5;}
	.st4{display:none;fill:url(#SVGID_2_);}
</style>
<g id="Capa_2">
	<path class="st0" d="M852.8,649.8c-82.7,194.9-307.7,285.8-502.6,203s-285.8-307.7-203-502.6s307.7-285.8,502.6-203L500,500
		L852.8,649.8z"/>
</g>
<g id="Capa_3_1_">
	
		<linearGradient id="SVGID_1_" gradientUnits="userSpaceOnUse" x1="457.7337" y1="438.4141" x2="782.0031" y2="233.9484" gradientTransform="matrix(0.9205 0.3908 -0.3908 0.9205 240.3745 -141.5428)">
		<stop  offset="1.322751e-03" style="stop-color:#FC5284"/>
		<stop  offset="0.101" style="stop-color:#FA538A"/>
		<stop  offset="0.2353" style="stop-color:#F4559B"/>
		<stop  offset="0.3887" style="stop-color:#EA58B7"/>
		<stop  offset="0.4692" style="stop-color:#E45AC9"/>
		<stop  offset="0.5571" style="stop-color:#E55CC4"/>
		<stop  offset="0.6665" style="stop-color:#E961B4"/>
		<stop  offset="0.7874" style="stop-color:#F0689B"/>
		<stop  offset="0.9156" style="stop-color:#F87478"/>
		<stop  offset="0.9987" style="stop-color:#FF7C5D"/>
	</linearGradient>
	<path class="st1" d="M852.8,649.8L500,500l149.8-352.8C844.6,229.9,935.5,454.9,852.8,649.8z"/>
</g>
<g id="Capa_1">
	<g id="Capa_3" class="st2">
	</g>
	<path class="st3" d="M805.3,697.5c-98.1,186.3-328.6,257.8-514.8,159.7S32.7,528.6,130.8,342.3S459.3,84.6,645.6,182.6L468,519.9
		L805.3,697.5z"/>
	
		<linearGradient id="SVGID_2_" gradientUnits="userSpaceOnUse" x1="587.2973" y1="480.9894" x2="781.5381" y2="817.4244" gradientTransform="matrix(0.8849 0.4659 0.4659 -0.8849 -238.5787 730.9242)">
		<stop  offset="1.322751e-03" style="stop-color:#FC5284"/>
		<stop  offset="0.101" style="stop-color:#FA538A"/>
		<stop  offset="0.2353" style="stop-color:#F4559B"/>
		<stop  offset="0.3887" style="stop-color:#EA58B7"/>
		<stop  offset="0.4692" style="stop-color:#E45AC9"/>
		<stop  offset="0.5571" style="stop-color:#E55CC4"/>
		<stop  offset="0.6665" style="stop-color:#E961B4"/>
		<stop  offset="0.7874" style="stop-color:#F0689B"/>
		<stop  offset="0.9156" style="stop-color:#F87478"/>
		<stop  offset="0.9987" style="stop-color:#FF7C5D"/>
	</linearGradient>
	<path class="st4" d="M645.6,182.6L468,519.9l337.3,177.6C805.3,697.5,981,361.3,645.6,182.6z"/>
</g>
</svg>
