<?xml version="1.0" encoding="utf-8"?>
<!-- Generator: Adobe Illustrator 24.0.1, SVG Export Plug-In . SVG Version: 6.00 Build 0)  -->
<svg version="1.1" xmlns="http://www.w3.org/2000/svg" xmlns:xlink="http://www.w3.org/1999/xlink" x="0px" y="0px"
	 viewBox="0 0 1000 1000" style="enable-background:new 0 0 1000 1000;" xml:space="preserve">
<style type="text/css">
	.st0{fill:#EBECF5;}
	.st1{fill:url(#SVGID_1_);}
	.st2{display:none;}
	.st3{fill:url(#SVGID_2_);}
	.st4{fill:url(#SVGID_3_);}
</style>
<g id="Capa_2">
	<path class="st0" d="M761.8,601.3c-59,138.9-219.4,203.7-358.3,144.8c-138.9-59-203.7-219.4-144.8-358.3S478.1,184,617.1,243
		L510.3,494.5L761.8,601.3z"/>
</g>
<g id="Capa_3_1_">
	
		<linearGradient id="SVGID_1_" gradientUnits="userSpaceOnUse" x1="474.2143" y1="443.8981" x2="705.3975" y2="298.1273" gradientTransform="matrix(0.9205 0.3908 -0.3908 0.9205 240.3745 -141.5428)">
		<stop  offset="1.322751e-03" style="stop-color:#FC5284"/>
		<stop  offset="0.101" style="stop-color:#FA538A"/>
		<stop  offset="0.2353" style="stop-color:#F4559B"/>
		<stop  offset="0.3887" style="stop-color:#EA58B7"/>
		<stop  offset="0.4692" style="stop-color:#E45AC9"/>
		<stop  offset="0.5571" style="stop-color:#E55CC4"/>
		<stop  offset="0.6665" style="stop-color:#E961B4"/>
		<stop  offset="0.7874" style="stop-color:#F0689B"/>
		<stop  offset="0.9156" style="stop-color:#F87478"/>
		<stop  offset="0.9987" style="stop-color:#FF7C5D"/>
	</linearGradient>
	<path class="st1" d="M761.8,601.3L510.3,494.5L617.1,243C756,302,820.8,462.4,761.8,601.3z"/>
</g>
<g id="Capa_1" class="st2">
	<g id="Capa_3">
	</g>
	<path class="st0" d="M805.3,697.5c-98.1,186.3-328.6,257.8-514.8,159.7S32.7,528.6,130.8,342.3S459.3,84.6,645.6,182.6L468,519.9
		L805.3,697.5z"/>
	
		<linearGradient id="SVGID_2_" gradientUnits="userSpaceOnUse" x1="587.2973" y1="480.9894" x2="781.5381" y2="817.4244" gradientTransform="matrix(0.8849 0.4659 0.4659 -0.8849 -238.5787 730.9242)">
		<stop  offset="1.322751e-03" style="stop-color:#FC5284"/>
		<stop  offset="0.101" style="stop-color:#FA538A"/>
		<stop  offset="0.2353" style="stop-color:#F4559B"/>
		<stop  offset="0.3887" style="stop-color:#EA58B7"/>
		<stop  offset="0.4692" style="stop-color:#E45AC9"/>
		<stop  offset="0.5571" style="stop-color:#E55CC4"/>
		<stop  offset="0.6665" style="stop-color:#E961B4"/>
		<stop  offset="0.7874" style="stop-color:#F0689B"/>
		<stop  offset="0.9156" style="stop-color:#F87478"/>
		<stop  offset="0.9987" style="stop-color:#FF7C5D"/>
	</linearGradient>
	<path class="st3" d="M645.6,182.6L468,519.9l337.3,177.6C805.3,697.5,981,361.3,645.6,182.6z"/>
</g>
<g id="Capa_4">
	<path class="st0" d="M343.8,205.1H89.4c-4.1,0-7.4-3.3-7.4-7.4v-36.1c0-4.1,3.3-7.4,7.4-7.4h254.4c4.1,0,7.4,3.3,7.4,7.4v36.1
		C351.3,201.8,348,205.1,343.8,205.1z"/>
	<linearGradient id="SVGID_3_" gradientUnits="userSpaceOnUse" x1="808.4167" y1="345.3633" x2="959.8835" y2="249.857">
		<stop  offset="1.322751e-03" style="stop-color:#FC5284"/>
		<stop  offset="0.101" style="stop-color:#FA538A"/>
		<stop  offset="0.2353" style="stop-color:#F4559B"/>
		<stop  offset="0.3887" style="stop-color:#EA58B7"/>
		<stop  offset="0.4692" style="stop-color:#E45AC9"/>
		<stop  offset="0.5571" style="stop-color:#E55CC4"/>
		<stop  offset="0.6665" style="stop-color:#E961B4"/>
		<stop  offset="0.7874" style="stop-color:#F0689B"/>
		<stop  offset="0.9156" style="stop-color:#F87478"/>
		<stop  offset="0.9987" style="stop-color:#FF7C5D"/>
	</linearGradient>
	<path class="st4" d="M970.8,321.6H797.5c-4.1,0-7.4-3.3-7.4-7.4v-33c0-4.1,3.3-7.4,7.4-7.4h173.3c4.1,0,7.4,3.3,7.4,7.4v33
		C978.2,318.2,974.9,321.6,970.8,321.6z"/>
	<path class="st0" d="M876.7,845.8H646.9c-4.1,0-7.4-3.3-7.4-7.4v-36.2c0-4.1,3.3-7.4,7.4-7.4h229.8c4.1,0,7.4,3.3,7.4,7.4v36.2
		C884.2,842.5,880.8,845.8,876.7,845.8z"/>
	<path class="st0" d="M166.2,645.7h-137c-4.1,0-7.4-3.3-7.4-7.4v-29.5c0-4.1,3.3-7.4,7.4-7.4h137c4.1,0,7.4,3.3,7.4,7.4v29.5
		C173.6,642.4,170.3,645.7,166.2,645.7z"/>
</g>
</svg>
