<?xml version="1.0" encoding="utf-8"?>
<!-- Generator: Adobe Illustrator 24.0.1, SVG Export Plug-In . SVG Version: 6.00 Build 0)  -->
<svg version="1.1" xmlns="http://www.w3.org/2000/svg" xmlns:xlink="http://www.w3.org/1999/xlink" x="0px" y="0px"
	 viewBox="0 0 757.3 288.9" style="enable-background:new 0 0 757.3 288.9;" xml:space="preserve">
<style type="text/css">
	.st0{display:none;}
	.st1{display:inline;fill:#10254D;}
	.st2{font-family:'Inter-Medium';}
	.st3{font-size:269.9324px;}
	.st4{font-size:63.2654px;}
	.st5{display:none;fill:#10254D;}
	.st6{display:inline;fill:#10254D;stroke:#FFFFFF;stroke-miterlimit:10;}
	.st7{font-family:'Poppins-SemiBold';}
	.st8{font-size:154.0648px;}
	.st9{font-family:'Poppins-Regular';}
	.st10{font-size:114.3985px;}
	.st11{fill:#10254D;}
</style>
<g id="Capa_1">
	<text transform="matrix(1 0 0 1 15.003 226.1223)" class="st0"><tspan x="0" y="0" class="st1 st2 st3">[</tspan><tspan x="102" y="0" class="st1 st2 st4"> </tspan><tspan x="118.8" y="0" class="st1 st2 st3">}</tspan></text>
	<path class="st5" d="M179.6,211.8l-6.6,10.9c-26.4,1-64.2-21.6-64.2-21.6v-21.3C158,204,173,200.9,173,200.9L179.6,211.8z"/>
	<text transform="matrix(1 0 0 1 287.3652 149.5226)" class="st0"><tspan x="0" y="0" class="st6 st7 st8">HTSK</tspan><tspan x="0" y="98.7" class="st6 st9 st10">GAMES</tspan></text>
</g>
<g id="Capa_2">
	<path class="st11" d="M169.1,200.8v21.8c-0.9,0-1.9,0-2.8,0c0.4-2.4,0.6-5,0.6-7.9v-13.9C168.3,200.8,169.1,200.8,169.1,200.8z"/>
	<path class="st11" d="M169.1,200.8v21.8c-0.9,0-1.9,0-2.8,0c0.4-2.4,0.6-5,0.6-7.9v-13.9C168.3,200.8,169.1,200.8,169.1,200.8z"/>
	<path class="st11" d="M643.5,121.9L643.5,121.9z"/>
	<polygon class="st11" points="356.8,77.8 380.4,77.8 380.4,201.1 357.2,201.1 357.2,147.7 302.7,147.7 302.7,201.1 279.1,201.1 
		279.1,77.8 302.5,77.8 302.5,129 356.8,129 	"/>
	<path class="st11" d="M166.9,214.7c0,2.9-0.2,5.6-0.6,7.9c-30.2-0.5-61.4-21.6-61.4-21.6v-21.3c29.7,17.8,54.6,20.7,62,21.1V214.7z
		"/>
	<polygon class="st11" points="665.5,138.4 715.7,201.1 685.9,201.1 640.3,145.1 640.3,201.1 617.4,201.1 617.4,77.8 640.9,77.8 
		640.9,129.5 686.2,77.8 715.7,77.8 	"/>
	<polygon class="st11" points="399.9,77.8 489.3,77.8 489.3,96.5 456.3,96.5 456.3,201.1 432.6,201.1 432.6,96.7 399.9,96.7 	"/>
	<polygon class="st11" points="69.4,244.5 104.9,244.5 104.9,266.8 41.6,266.8 41.6,22.1 104.9,22.1 104.9,44.4 69.4,44.4 	"/>
	<path class="st11" d="M530.5,109.5c0,9,6.4,12.5,19,17.7c48.4,12.3,41.9,40.3,41.9,40.3s0.6,33.6-42.5,33.6s-43.8-35-43.8-35h25.1
		c1.3,17.1,19.4,16.4,19.4,16.4c27.8-0.4,20.6-21,20.5-21.4c0,0-1.2-8.9-32.7-15.9c-31.5-7.1-28.4-38.4-28.4-38.4s-1.2-31.3,40.6-31
		c41.9,0.3,43,33.5,43,33.5h-26c-0.7-4.5-5.2-12.2-17-13.8C537.7,93.7,530.5,100.5,530.5,109.5z"/>
	<path class="st11" d="M103.9,107.5c0-9.4,7.6-17.1,17.1-17.1c9.4,0,17.1,7.7,17.1,17.1c0,9.4-7.7,17.1-17.1,17.1
		C111.5,124.6,103.9,117,103.9,107.5z"/>
	<path class="st11" d="M222.3,130.2v28.2c0,0-29.3-2.9-29.3,24.4c0,27.2,13.6,83.7-55,83.7v-23c0,0,24.1,4.2,28.3-21
		c1,0,1.9,0,2.8,0v-21.8c0,0-0.8,0-2.2-0.1v-28.6c0-5.5,1.8-10.8,5.1-15.1c4.6-5.9,12.3-12.7,23.8-12.7c-12.5,0-20.6-8.1-25-14.3
		c-2.6-3.7-3.9-8.1-3.9-12.6V74c0-33.9-28.9-28.9-28.9-28.9v-23c68.6,0,55,56.5,55,83.8C193,133.1,222.3,130.2,222.3,130.2z"/>
</g>
</svg>
