<?xml version="1.0" encoding="utf-8"?>
<!-- Generator: Adobe Illustrator 24.0.1, SVG Export Plug-In . SVG Version: 6.00 Build 0)  -->
<svg version="1.1" id="Capa_1" xmlns="http://www.w3.org/2000/svg" xmlns:xlink="http://www.w3.org/1999/xlink" x="0px" y="0px"
	 viewBox="0 0 1894.1 559.3" style="enable-background:new 0 0 1894.1 559.3;" xml:space="preserve">
<style type="text/css">
	.st0{fill:#10254D;}
	.st1{display:none;fill:#424242;}
	.st2{font-family:'Poppins-Thin';}
	.st3{font-size:272.6044px;}
	.st4{font-family:'Poppins-ExtraLight';}
</style>
<path class="st0" d="M410.1,28.2H157.3c-69,0-124.9,55.9-124.9,125v252.9c0,69,55.9,124.9,124.9,124.9h252.9
	c69,0,124.9-55.9,124.9-124.9v-253C535.1,84.1,479.1,28.2,410.1,28.2z M479.3,306.5c0,0,15.7-10,20,14.3
	c4.3,24.4-15.7,97.4-15.7,97.4s-91.4,26.5-151.4,20.6c0,0-23.8,1.1-10.8-18.5c0,0,31.9-55-37.7-58.2c-69.6,3.2-37.7,58.2-37.7,58.2
	c13,19.6-10.8,18.5-10.8,18.5c-60,5.8-151.4-20.6-151.4-20.6s-20-73-15.7-97.4c4.3-24.3,20-14.3,20-14.3c62.2,31.8,66-27,66-27
	s-3.8-58.8-66-27c0,0-15.7,10.1-20-14.3c-4.3-24.3,15.7-97.4,15.7-97.4s91.6-27.4,151.4-20.6c0,0,23.8-1.1,10.8,18.5
	c0,0-31.9,55,37.7,58.2c69.6-3.2,37.7-58.2,37.7-58.2c-13-19.6,10.8-18.5,10.8-18.5c60-5.8,151.4,20.6,151.4,20.6s20,73,15.7,97.4
	s-20,14.3-20,14.3c-62.2-31.8-66,27-66,27S417.1,338.3,479.3,306.5z"/>
<path class="st1" d="M496,176.1c4.4,24.3-15.7,97.3-15.7,97.3s-91.4,26.5-151.4,20.6c0,0-23.8,1.1-10.8-18.5c0,0,31.9-55-37.7-58.2
	c-69.6,3.2-37.7,58.2-37.7,58.2c13,19.6-10.8,18.5-10.8,18.5c-60,5.8-151.4-20.6-151.4-20.6s-20-73-15.7-97.4
	c4.3-24.3,20-14.3,20-14.3c62.2,31.8,66-27,66-27s-3.8-58.8-66-27c0,0-15.7,10.1-20-14.3C60.5,69.1,80.5-4,80.5-4
	s91.4-26.5,151.4-20.6c0,0,23.8-1.1,10.8,18.5c0,0-31.9,55,37.7,58.2c69.6-3.2,37.7-58.2,37.7-58.2c-13-19.6,10.8-18.5,10.8-18.5
	C388.9-30.4,480.3-4,480.3-4s20,73,15.7,97.4s-20,14.3-20,14.3c-62.2-31.8-66,27-66,27s3.8,58.8,66,27
	C476,161.8,491.7,151.7,496,176.1z"/>
<text transform="matrix(1 0 0 1 615.5164 373.8618)"><tspan x="0" y="0" class="st2 st3">I</tspan><tspan x="51.8" y="0" class="st0 st2 st3">DEAS</tspan><tspan x="683.7" y="0" class="st0 st4 st3">UPV</tspan></text>
</svg>
