<?xml version="1.0" encoding="utf-8"?>
<!-- Generator: Adobe Illustrator 24.0.1, SVG Export Plug-In . SVG Version: 6.00 Build 0)  -->
<svg version="1.1" id="Capa_1" xmlns="http://www.w3.org/2000/svg" xmlns:xlink="http://www.w3.org/1999/xlink" x="0px" y="0px"
	 viewBox="0 0 1500 363.8" style="enable-background:new 0 0 1500 363.8;" xml:space="preserve">
<style type="text/css">
	.st0{display:none;}
	.st1{fill:url(#SVGID_1_);}
	.st2{fill:url(#SVGID_2_);}
	.st3{fill:url(#SVGID_3_);}
	.st4{enable-background:new    ;}
	.st5{fill:#10264D;}
</style>
<g id="Capa_1_1_" class="st0">
</g>
<g id="Capa_2_1_">
	
		<linearGradient id="SVGID_1_" gradientUnits="userSpaceOnUse" x1="49.0723" y1="1826.7272" x2="358.0187" y2="1547.3606" gradientTransform="matrix(1 0 0 1 0 -1500)">
		<stop  offset="0" style="stop-color:#FC5284"/>
		<stop  offset="0.4898" style="stop-color:#D272DD"/>
		<stop  offset="1" style="stop-color:#FF7C5D"/>
	</linearGradient>
	<polygon class="st1" points="254.2,113.1 297.9,280.8 73.9,323.6 73.9,125.2 	"/>
	
		<linearGradient id="SVGID_2_" gradientUnits="userSpaceOnUse" x1="67.4627" y1="1847.0647" x2="376.4091" y2="1567.6981" gradientTransform="matrix(1 0 0 1 0 -1500)">
		<stop  offset="0" style="stop-color:#FC5284"/>
		<stop  offset="0.4898" style="stop-color:#D272DD"/>
		<stop  offset="1" style="stop-color:#FF7C5D"/>
	</linearGradient>
	<polygon class="st2" points="294.5,155.9 268.7,64.4 366.5,60.9 402.5,144.8 	"/>
	
		<linearGradient id="SVGID_3_" gradientUnits="userSpaceOnUse" x1="163.7009" y1="1953.4928" x2="472.6473" y2="1674.1263" gradientTransform="matrix(1 0 0 1 0 -1500)">
		<stop  offset="0" style="stop-color:#FC5284"/>
		<stop  offset="0.1559" style="stop-color:#F85088"/>
		<stop  offset="0.3049" style="stop-color:#ED4B92"/>
		<stop  offset="0.4508" style="stop-color:#D942A4"/>
		<stop  offset="0.4898" style="stop-color:#D33FAA"/>
		<stop  offset="1" style="stop-color:#FF7C5D"/>
	</linearGradient>
	<polygon class="st3" points="493.6,303.3 345.2,338 300.8,181.4 430.5,166.6 	"/>
	<g class="st4">
		<path class="st5" d="M612.1,284.2c-11.1-5.1-19.9-12-26.4-20.7c-6.5-8.7-9.9-18.5-10.3-29.3h38.2c0.6,7.5,4.3,13.9,10.8,18.9
			c6.6,5.1,14.8,7.6,24.7,7.6c10.3,0,18.4-2,24.1-6c5.7-4,8.6-9.1,8.6-15.4c0-6.7-3.2-11.6-9.5-14.9c-6.4-3.2-16.4-6.8-30.2-10.7
			c-13.4-3.7-24.3-7.2-32.7-10.7c-8.4-3.4-15.7-8.7-21.8-15.8c-6.1-7.1-9.2-16.5-9.2-28.1c0-9.5,2.8-18.2,8.4-26
			c5.6-7.9,13.6-14.1,24.1-18.6c10.5-4.5,22.5-6.8,36.1-6.8c20.3,0,36.6,5.1,49,15.4c12.4,10.2,19,24.2,19.9,41.9h-36.9
			c-0.6-8-3.9-14.3-9.7-19.1c-5.8-4.7-13.7-7.1-23.6-7.1c-9.7,0-17.1,1.8-22.3,5.5c-5.2,3.7-7.8,8.5-7.8,14.6c0,4.7,1.7,8.7,5.2,12
			c3.4,3.2,7.6,5.8,12.6,7.6c5,1.8,12.3,4.2,22,7c12.9,3.5,23.5,7,31.8,10.5c8.3,3.6,15.5,8.8,21.5,15.7c6,6.9,9.2,16.1,9.4,27.5
			c0,10.1-2.8,19.2-8.4,27.2c-5.6,8-13.5,14.2-23.8,18.8c-10.2,4.5-22.3,6.8-36.1,6.8C635.7,291.8,623.2,289.3,612.1,284.2z"/>
		<path class="st5" d="M919.1,110.7v178.2h-36.9v-21c-5.8,7.3-13.4,13.1-22.8,17.3c-9.4,4.2-19.3,6.3-29.9,6.3
			c-14,0-26.6-2.9-37.7-8.7c-11.1-5.8-19.8-14.4-26.2-25.9c-6.4-11.4-9.5-25.2-9.5-41.4V110.7h36.5V210c0,16,4,28.2,12,36.7
			c8,8.5,18.9,12.8,32.7,12.8c13.8,0,24.7-4.3,32.8-12.8c8.1-8.5,12.1-20.7,12.1-36.7v-99.3H919.1z"/>
		<path class="st5" d="M966.4,151.5c7.4-13.8,17.6-24.5,30.4-32.2c12.8-7.6,27.1-11.5,42.8-11.5c11.6,0,23.1,2.5,34.4,7.6
			c11.3,5.1,20.3,11.8,27,20.2v-86h37.2v239.3h-37.2v-26.8c-6,8.6-14.4,15.7-25.1,21.3c-10.7,5.6-22.9,8.4-36.7,8.4
			c-15.5,0-29.7-3.9-42.5-11.8c-12.8-7.9-23-18.9-30.4-33c-7.4-14.1-11.2-30.1-11.2-48C955.3,181.1,959,165.3,966.4,151.5z
			 M1093.5,167.6c-5.1-9.1-11.7-15.9-19.9-20.7c-8.2-4.7-17-7.1-26.5-7.1c-9.5,0-18.3,2.3-26.5,7c-8.2,4.6-14.8,11.4-19.9,20.4
			c-5.1,8.9-7.6,19.6-7.6,31.8s2.5,23.1,7.6,32.3c5.1,9.3,11.7,16.3,20,21.2c8.3,4.8,17.1,7.3,26.4,7.3c9.5,0,18.3-2.4,26.5-7.1
			c8.2-4.7,14.8-11.7,19.9-20.9c5.1-9.2,7.6-19.9,7.6-32.2S1098.6,176.7,1093.5,167.6z"/>
		<path class="st5" d="M1223.7,49.6v239.3h-36.9V49.6H1223.7z"/>
		<path class="st5" d="M1434.2,213.6H1298c1.1,14.2,6.4,25.7,15.8,34.3c9.5,8.6,21.1,12.9,34.9,12.9c19.8,0,33.8-8.3,42-24.9h39.8
			c-5.4,16.4-15.1,29.8-29.3,40.3c-14.1,10.5-31.6,15.7-52.5,15.7c-17,0-32.3-3.8-45.8-11.5c-13.5-7.6-24-18.4-31.7-32.3
			c-7.7-13.9-11.5-30-11.5-48.3c0-18.3,3.7-34.4,11.2-48.3c7.4-13.9,17.9-24.6,31.4-32.2c13.5-7.5,28.9-11.3,46.4-11.3
			c16.8,0,31.8,3.7,44.9,11c13.1,7.3,23.4,17.6,30.7,30.9c7.3,13.3,11,28.5,11,45.8C1435.4,202.1,1435,208.2,1434.2,213.6z
			 M1397,183.8c-0.2-13.6-5.1-24.5-14.5-32.7c-9.5-8.2-21.2-12.3-35.2-12.3c-12.7,0-23.6,4-32.7,12.1s-14.4,19-16.2,32.8H1397z"/>
	</g>
</g>
</svg>
