<?xml version="1.0" encoding="utf-8"?>
<!-- Generator: Adobe Illustrator 24.0.1, SVG Export Plug-In . SVG Version: 6.00 Build 0)  -->
<svg version="1.1" xmlns="http://www.w3.org/2000/svg" xmlns:xlink="http://www.w3.org/1999/xlink" x="0px" y="0px"
	 viewBox="0 0 554.2 199" style="enable-background:new 0 0 554.2 199;" xml:space="preserve">
<style type="text/css">
	.st0{display:none;}
	.st1{display:inline;fill:#10254D;}
	.st2{font-family:'Inter-Medium';}
	.st3{font-size:269.9324px;}
	.st4{font-size:63.2654px;}
	.st5{display:none;fill:#10254D;}
	.st6{display:inline;fill:#10254D;stroke:#FFFFFF;stroke-miterlimit:10;}
	.st7{font-family:'Poppins-SemiBold';}
	.st8{font-size:154.0648px;}
	.st9{font-family:'Poppins-Regular';}
	.st10{font-size:114.3985px;}
	.st11{fill:#10254D;stroke:#000000;stroke-width:0.75;stroke-miterlimit:10;}
	.st12{font-family:'RobotoSlab-ExtraLight';}
	.st13{font-size:233.207px;}
	.st14{font-family:'RobotoSlab-Light';}
</style>
<g id="Capa_1">
	<text transform="matrix(1 0 0 1 15.003 136.163)" class="st0"><tspan x="0" y="0" class="st1 st2 st3">[</tspan><tspan x="102" y="0" class="st1 st2 st4"> </tspan><tspan x="118.8" y="0" class="st1 st2 st3">}</tspan></text>
	<path class="st5" d="M179.6,121.8l-6.6,10.9c-26.4,1-64.2-21.6-64.2-21.6V89.8C158,114.1,173,111,173,111L179.6,121.8z"/>
	<text transform="matrix(1 0 0 1 287.3652 59.5633)" class="st0"><tspan x="0" y="0" class="st6 st7 st8">HTSK</tspan><tspan x="0" y="98.7" class="st6 st9 st10">GAMES</tspan></text>
</g>
<g id="Capa_2" class="st0">
	<path class="st1" d="M169.1,110.9v21.8c-0.9,0-1.9,0-2.8,0c0.4-2.4,0.6-5,0.6-7.9v-13.9C168.3,110.9,169.1,110.9,169.1,110.9z"/>
	<path class="st1" d="M169.1,110.9v21.8c-0.9,0-1.9,0-2.8,0c0.4-2.4,0.6-5,0.6-7.9v-13.9C168.3,110.9,169.1,110.9,169.1,110.9z"/>
	<path class="st1" d="M643.5,32L643.5,32z"/>
	<polygon class="st1" points="356.8,-12.1 380.4,-12.1 380.4,111.2 357.2,111.2 357.2,57.7 302.7,57.7 302.7,111.2 279.1,111.2 
		279.1,-12.1 302.5,-12.1 302.5,39 356.8,39 	"/>
	<path class="st1" d="M166.9,124.7c0,2.9-0.2,5.6-0.6,7.9c-30.2-0.5-61.4-21.6-61.4-21.6V89.7c29.7,17.8,54.6,20.7,62,21.1V124.7z"
		/>
	<polygon class="st1" points="665.5,48.5 715.7,111.2 685.9,111.2 640.3,55.1 640.3,111.2 617.4,111.2 617.4,-12.1 640.9,-12.1 
		640.9,39.6 686.2,-12.1 715.7,-12.1 	"/>
	<polygon class="st1" points="399.9,-12.1 489.3,-12.1 489.3,6.5 456.3,6.5 456.3,111.2 432.6,111.2 432.6,6.7 399.9,6.7 	"/>
	<polygon class="st1" points="69.4,154.6 104.9,154.6 104.9,176.8 41.6,176.8 41.6,-67.8 104.9,-67.8 104.9,-45.6 69.4,-45.6 	"/>
	<path class="st1" d="M530.5,19.5c0,9,6.4,12.5,19,17.7c48.4,12.3,41.9,40.3,41.9,40.3s0.6,33.6-42.5,33.6s-43.8-35-43.8-35h25.1
		c1.3,17.1,19.4,16.4,19.4,16.4c27.8-0.4,20.6-21,20.5-21.4c0,0-1.2-8.9-32.7-15.9c-31.5-7.1-28.4-38.4-28.4-38.4s-1.2-31.3,40.6-31
		c41.9,0.3,43,33.5,43,33.5h-26c-0.7-4.5-5.2-12.2-17-13.8C537.7,3.8,530.5,10.5,530.5,19.5z"/>
	<path class="st1" d="M103.9,17.6c0-9.4,7.6-17.1,17.1-17.1c9.4,0,17.1,7.7,17.1,17.1c0,9.4-7.7,17.1-17.1,17.1
		C111.5,34.7,103.9,27,103.9,17.6z"/>
	<path class="st1" d="M222.3,40.3v28.2c0,0-29.3-2.9-29.3,24.4c0,27.2,13.6,83.8-55,83.8v-23c0,0,24.1,4.2,28.3-21c1,0,1.9,0,2.8,0
		v-21.8c0,0-0.8,0-2.2-0.1V82.2c0-5.5,1.8-10.8,5.1-15.1c4.6-5.9,12.3-12.7,23.8-12.7c-12.5,0-20.6-8.1-25-14.3
		c-2.6-3.7-3.9-8.1-3.9-12.6v-43.4c0-33.9-28.9-28.9-28.9-28.9v-23c68.6,0,55,56.5,55,83.8C193,43.2,222.3,40.3,222.3,40.3z"/>
</g>
<g id="Capa_3">
	<text transform="matrix(1 0 0 1 10.706 184.5096)"><tspan x="0" y="0" class="st11 st12 st13">oink</tspan><tspan x="487" y="0" class="st11 st14 st13">!</tspan></text>
</g>
</svg>
