<?xml version="1.0" encoding="utf-8"?>
<!-- Generator: Adobe Illustrator 24.0.1, SVG Export Plug-In . SVG Version: 6.00 Build 0)  -->
<svg version="1.1" id="Capa_1" xmlns="http://www.w3.org/2000/svg" xmlns:xlink="http://www.w3.org/1999/xlink" x="0px" y="0px"
	 viewBox="0 0 233.5 285.5" style="enable-background:new 0 0 233.5 285.5;" xml:space="preserve">
<style type="text/css">
	.st0{display:none;}
	.st1{display:inline;fill:none;stroke:#10254D;stroke-miterlimit:10;}
	.st2{fill:#10254D;}
</style>
<g id="Capa_1_1_" class="st0">
	<line class="st1" x1="23.3" y1="130.9" x2="136" y2="18.2"/>
	<line class="st1" x1="26.7" y1="180.6" x2="185.8" y2="21.5"/>
	<line class="st1" x1="26.8" y1="236.1" x2="241.3" y2="21.6"/>
	<line class="st1" x1="26.9" y1="74.1" x2="79.3" y2="21.7"/>
	<line class="st1" x1="272.5" y1="154.6" x2="159.8" y2="267.3"/>
	<line class="st1" x1="269.2" y1="104.8" x2="110" y2="264"/>
	<line class="st1" x1="269" y1="49.3" x2="54.5" y2="263.9"/>
	<line class="st1" x1="268.9" y1="211.3" x2="216.5" y2="263.7"/>
</g>
<g id="Capa_2_1_">
	<circle class="st2" cx="40.4" cy="32.1" r="2.1"/>
	<circle class="st2" cx="71.1" cy="32.1" r="2.1"/>
	<circle class="st2" cx="101.8" cy="32.1" r="2.1"/>
	<circle class="st2" cx="132.6" cy="32.1" r="2.1"/>
	<circle class="st2" cx="163.3" cy="32.1" r="2.1"/>
	<circle class="st2" cx="194" cy="32.1" r="2.1"/>
	<circle class="st2" cx="40.4" cy="62" r="2.1"/>
	<circle class="st2" cx="40.4" cy="92.7" r="2.1"/>
	<circle class="st2" cx="40.4" cy="123.4" r="2.1"/>
	<circle class="st2" cx="40.4" cy="154.2" r="2.1"/>
	<circle class="st2" cx="40.4" cy="184.9" r="2.1"/>
	<circle class="st2" cx="40.4" cy="215.6" r="2.1"/>
	<circle class="st2" cx="40.4" cy="246.3" r="2.1"/>
	<circle class="st2" cx="194" cy="246.3" r="2.1"/>
	<circle class="st2" cx="163.3" cy="246.3" r="2.1"/>
	<circle class="st2" cx="132.6" cy="246.3" r="2.1"/>
	<circle class="st2" cx="101.8" cy="246.3" r="2.1"/>
	<circle class="st2" cx="71.1" cy="246.3" r="2.1"/>
	<circle class="st2" cx="71.1" cy="62.4" r="2.1"/>
	<circle class="st2" cx="71.1" cy="93.1" r="2.1"/>
	<circle class="st2" cx="71.1" cy="123.8" r="2.1"/>
	<circle class="st2" cx="71.1" cy="154.5" r="2.1"/>
	<circle class="st2" cx="71.1" cy="185.3" r="2.1"/>
	<circle class="st2" cx="71.1" cy="216" r="2.1"/>
	<circle class="st2" cx="101.8" cy="62.4" r="2.1"/>
	<circle class="st2" cx="101.8" cy="93.1" r="2.1"/>
	<circle class="st2" cx="101.8" cy="123.8" r="2.1"/>
	<circle class="st2" cx="101.8" cy="154.5" r="2.1"/>
	<circle class="st2" cx="101.8" cy="185.3" r="2.1"/>
	<circle class="st2" cx="101.8" cy="216" r="2.1"/>
	<circle class="st2" cx="132.6" cy="62.4" r="2.1"/>
	<circle class="st2" cx="132.6" cy="93.1" r="2.1"/>
	<circle class="st2" cx="132.6" cy="123.8" r="2.1"/>
	<circle class="st2" cx="132.6" cy="154.5" r="2.1"/>
	<circle class="st2" cx="132.6" cy="185.3" r="2.1"/>
	<circle class="st2" cx="132.6" cy="216" r="2.1"/>
	<circle class="st2" cx="163.3" cy="62.4" r="2.1"/>
	<circle class="st2" cx="163.3" cy="93.1" r="2.1"/>
	<circle class="st2" cx="163.3" cy="123.8" r="2.1"/>
	<circle class="st2" cx="163.3" cy="154.5" r="2.1"/>
	<circle class="st2" cx="163.3" cy="185.3" r="2.1"/>
	<circle class="st2" cx="163.3" cy="216" r="2.1"/>
	<circle class="st2" cx="194" cy="62.4" r="2.1"/>
	<circle class="st2" cx="194" cy="93.1" r="2.1"/>
	<circle class="st2" cx="194" cy="123.8" r="2.1"/>
	<circle class="st2" cx="194" cy="154.5" r="2.1"/>
	<circle class="st2" cx="194" cy="185.3" r="2.1"/>
	<circle class="st2" cx="194" cy="216" r="2.1"/>
</g>
</svg>
